# xmcd
#
# Track frame offsets:
#	150
#	15624
#	32395
#	46994
#	65067
#	80402
#	99214
#	114298
#	131643
#	146470
#	162691
#	176508
#	195607
#	209339
#	227326
#	242437
#	258680
#	276360
#	288245
#	303427
#	320299
#
# Disc length: 4517 seconds
#
# Revision: 0
# Processed by: cddbd v1.5.2PL0 Copyright (c) Steve Scherf et al.
# Submitted via: dBpowerAMP V4.0
#
DISCID=2011a315
DTITLE=Various Artist - ERG Nu Country Traxx Vol. 222 CAN
DYEAR=2012
DGENRE=Country
TTITLE0=Toby Keith - Hope On The Rocks
TTITLE1=Tim McGraw - One Of Those Nights
TTITLE2=Jason Aldean - The Only Way I Know
TTITLE3=Kelly Clarkson ft.  Vince Gill - Don't Rush
TTITLE4=Thompson Square - If I Didn't Have You
TTITLE5=Small Town Pistols - Living On The Outside
TTITLE6=Hunter Hayes - Somebody's Heartbreak
TTITLE7=George Strait - Give It All We Got
TTITLE8=Hayden Panettiere - Telescope
TTITLE9=Clayton Bellamy - Straight Into The Sun
TTITLE10=Band Perry, The - Better Dig Two
TTITLE11=Brantley Gilbert - More Than Miles
TTITLE12=Dustin Lynch - She Cranks My Tractor
TTITLE13=Emerson Drive ft. Doc Walker - Let It Roll
TTITLE14=Love And Theft - Runnin' Out Of Air
TTITLE15=Jana Kramer - Whiskey
TTITLE16=Jason Kirkness - Leavin'
TTITLE17=Chris Young - I Can Take It From Here
TTITLE18=Kortney and Dave - Marry Me Again
TTITLE19=Kristy Lee Cook - Airborne Ranger Infantry
TTITLE20=Sweetwater Rain - Starshine
EXTD=
EXTT0=
EXTT1=
EXTT2=
EXTT3=
EXTT4=
EXTT5=
EXTT6=
EXTT7=
EXTT8=
EXTT9=
EXTT10=
EXTT11=
EXTT12=
EXTT13=
EXTT14=
EXTT15=
EXTT16=
EXTT17=
EXTT18=
EXTT19=
EXTT20=
PLAYORDER=
